<?xml version="1.0" encoding="iso-8859-1"?>
<!-- Uploaded to: SVG Repo, www.svgrepo.com, Generator: SVG Repo Mixer Tools -->
<svg version="1.1" id="Layer_1" xmlns="http://www.w3.org/2000/svg" xmlns:xlink="http://www.w3.org/1999/xlink" 
	 viewBox="0 0 512 512" xml:space="preserve">
<rect x="14.501" y="126.23" style="fill:#FFDC64;" width="483.003" height="348.016"/>
<circle style="fill:#FF5050;" cx="372" cy="351.164" r="69.603"/>
<path d="M372.005,435.268c-46.375,0-84.104-37.729-84.104-84.104s37.729-84.104,84.104-84.104s84.104,37.729,84.104,84.104
	C456.109,397.539,418.381,435.268,372.005,435.268z M372.005,296.062c-30.383,0-55.103,24.719-55.103,55.103
	c0,30.383,24.719,55.103,55.103,55.103s55.103-24.719,55.103-55.103S402.389,296.062,372.005,296.062z"/>
<rect x="94.559" y="179.157" style="fill:#7BFFCD;" width="322.887" height="47.369"/>
<path d="M417.441,164.649H153.044v-0.483c0-8.007-6.492-14.501-14.501-14.501c-8.009,0-14.501,6.493-14.501,14.501v0.483H94.559
	c-8.009,0-14.501,6.493-14.501,14.501v47.369c0,8.007,6.492,14.501,14.501,14.501h29.484v0.483c0,8.007,6.492,14.501,14.501,14.501
	c8.009,0,14.501-6.493,14.501-14.501v-0.483H417.44c8.009,0,14.501-6.493,14.501-14.501V179.15
	C431.942,171.143,425.45,164.649,417.441,164.649z M109.06,212.019v-18.368h14.984v18.368H109.06z M402.94,212.019H153.044v-18.368
	h249.894v18.368H402.94z"/>
<path d="M210.733,307.662H95.358c-8.009,0-14.501-6.493-14.501-14.501c0-8.007,6.492-14.501,14.501-14.501h115.375
	c8.009,0,14.501,6.493,14.501,14.501C225.233,301.169,218.741,307.662,210.733,307.662z"/>
<path d="M254.23,307.655c-0.943,0-1.9-0.088-2.828-0.276c-0.928-0.189-1.842-0.464-2.712-0.827
	c-0.885-0.363-1.726-0.812-2.509-1.334c-0.798-0.537-1.537-1.13-2.204-1.813c-0.667-0.667-1.276-1.407-1.798-2.19
	c-0.522-0.798-0.972-1.639-1.334-2.507c-0.363-0.871-0.638-1.784-0.827-2.712c-0.189-0.943-0.29-1.885-0.29-2.842
	c0-0.943,0.102-1.901,0.29-2.828c0.189-0.928,0.464-1.843,0.827-2.712s0.812-1.726,1.334-2.509c0.522-0.798,1.131-1.537,1.798-2.204
	c0.667-0.667,1.407-1.276,2.204-1.798c0.783-0.521,1.624-0.972,2.509-1.334c0.87-0.363,1.784-0.637,2.712-0.827
	c1.871-0.377,3.799-0.377,5.67,0c0.914,0.19,1.827,0.464,2.712,0.827c0.87,0.363,1.711,0.814,2.494,1.334
	c0.798,0.522,1.537,1.131,2.204,1.798c0.667,0.667,1.276,1.407,1.813,2.204c0.522,0.783,0.972,1.64,1.334,2.509
	s0.638,1.784,0.827,2.712c0.189,0.928,0.276,1.885,0.276,2.828c0,0.957-0.087,1.9-0.276,2.842c-0.189,0.928-0.464,1.842-0.827,2.712
	c-0.363,0.87-0.812,1.711-1.334,2.507c-0.537,0.783-1.146,1.523-1.813,2.19c-0.667,0.683-1.407,1.276-2.204,1.813
	c-0.783,0.522-1.624,0.972-2.494,1.334c-0.885,0.363-1.798,0.638-2.712,0.827C256.13,307.568,255.173,307.655,254.23,307.655z"/>
<path d="M210.733,423.668H95.358c-8.009,0-14.501-6.493-14.501-14.501c0-8.007,6.492-14.501,14.501-14.501h115.375
	c8.009,0,14.501,6.493,14.501,14.501C225.233,417.174,218.741,423.668,210.733,423.668z"/>
<path d="M254.23,423.66c-0.943,0-1.9-0.088-2.828-0.276c-0.928-0.189-1.842-0.464-2.712-0.827c-0.885-0.363-1.726-0.812-2.509-1.334
	c-0.798-0.537-1.537-1.13-2.204-1.797c-2.697-2.712-4.249-6.438-4.249-10.252c0-0.957,0.102-1.901,0.29-2.842
	c0.189-0.928,0.464-1.843,0.827-2.712s0.812-1.726,1.334-2.509c0.522-0.798,1.131-1.537,1.798-2.204s1.407-1.276,2.204-1.798
	c0.783-0.521,1.624-0.972,2.509-1.334c0.87-0.363,1.784-0.637,2.712-0.827c1.871-0.377,3.799-0.377,5.67,0
	c0.914,0.19,1.827,0.464,2.712,0.827c0.87,0.363,1.711,0.814,2.494,1.334c0.798,0.522,1.537,1.131,2.204,1.798
	c0.667,0.667,1.276,1.407,1.813,2.204c0.522,0.783,0.972,1.64,1.334,2.509s0.638,1.784,0.827,2.712
	c0.189,0.941,0.276,1.885,0.276,2.842c0,3.814-1.537,7.54-4.249,10.252c-0.667,0.667-1.407,1.26-2.204,1.797
	c-0.783,0.522-1.624,0.972-2.494,1.334c-0.885,0.363-1.798,0.638-2.712,0.827C256.13,423.573,255.173,423.66,254.23,423.66z"/>
<path d="M225.233,365.665H138.86c-8.009,0-14.501-6.493-14.501-14.501s6.492-14.501,14.501-14.501h86.373
	c8.009,0,14.501,6.493,14.501,14.501S233.242,365.665,225.233,365.665z"/>
<path d="M95.361,365.672c-0.943,0-1.9-0.102-2.842-0.29c-0.914-0.189-1.827-0.464-2.712-0.827c-0.87-0.363-1.711-0.812-2.494-1.334
	c-0.798-0.521-1.537-1.13-2.204-1.797c-0.667-0.683-1.276-1.421-1.813-2.206c-0.522-0.798-0.972-1.639-1.334-2.507
	c-0.363-0.871-0.638-1.784-0.827-2.712c-0.189-0.943-0.276-1.885-0.276-2.842c0-0.943,0.087-1.887,0.276-2.828
	c0.189-0.928,0.464-1.843,0.827-2.712c0.363-0.869,0.812-1.711,1.334-2.509c0.537-0.782,1.131-1.537,1.798-2.204
	c0.682-0.667,1.421-1.276,2.219-1.798c0.783-0.521,1.624-0.972,2.494-1.334c0.885-0.363,1.798-0.637,2.712-0.827
	c1.871-0.377,3.799-0.377,5.67,0c0.928,0.19,1.842,0.464,2.712,0.827c0.885,0.363,1.726,0.814,2.509,1.334
	c0.798,0.522,1.537,1.131,2.204,1.798c0.667,0.667,1.276,1.421,1.798,2.204c0.522,0.799,0.972,1.64,1.334,2.509
	s0.638,1.784,0.827,2.712c0.189,0.941,0.29,1.885,0.29,2.828c0,0.957-0.102,1.9-0.29,2.842c-0.189,0.928-0.464,1.842-0.827,2.712
	s-0.812,1.711-1.334,2.507c-0.522,0.783-1.131,1.523-1.798,2.206C102.916,364.121,99.174,365.672,95.361,365.672z"/>
<path d="M509.805,118.579c-1.903-4.014-5.603-7.111-10.296-8.035L57.239,23.54c-7.864-1.556-15.481,3.57-17.027,11.428
	c-1.546,7.858,3.572,15.482,11.429,17.027l303.608,59.725H14.501C6.492,111.72,0,118.214,0,126.221v348.016
	c0,8.007,6.492,14.501,14.501,14.501h482.999c8.009,0,14.501-6.493,14.501-14.501V126.221
	C512,123.414,511.188,120.801,509.805,118.579z M482.999,459.738H29.001V140.723h453.997V459.738z"/>
</svg>